# xmcd CD database file
#
# Track frame offsets:
#	183
#	15613
#	26915
#	42045
#	54558
#	66633
#	78965
#	92098
#	105118
#	117580
#	129138
#	140855
#	152703
#	163558
#	176080
#	184863
#	194070
#	216463
#	225120
#	234928
#
# Disc length: 3293 seconds
#
# Revision: 5
# Processed by: cddbd v1.5.2PL0 Copyright (c) Steve Scherf et al.
# Submitted via: CDex 1.70beta2
#
DISCID=110cdb14
DTITLE=The Platters - 20 Greatest Hits
DYEAR=1986
DGENRE=Oldies
TTITLE0=My Prayer
TTITLE1=Smoke Gets In Your Eyes
TTITLE2=The Great Pretender
TTITLE3=Twilight Time
TTITLE4=(You've Got) The Magic Touch
TTITLE5=Only You (And You Alone)
TTITLE6=Harbor Lights
TTITLE7=I'm Sorry
TTITLE8=If I Had You
TTITLE9=How Beautiful Our Love
TTITLE10=With This Ring
TTITLE11=I Love You 1000 Times
TTITLE12=Red Sails In The Sunset
TTITLE13=Washed Ashore (On A Lonely Island In The Sea)
TTITLE14=Sweet-Sweet Lovin'
TTITLE15=Doesn't It Ring A Bell
TTITLE16=Unchained Melody
TTITLE17=Devri
TTITLE18=One In A Million
TTITLE19=Pledging My Love
EXTD=YEAR: 1986
EXTT0=
EXTT1=
EXTT2=
EXTT3=
EXTT4=
EXTT5=
EXTT6=
EXTT7=
EXTT8=
EXTT9=
EXTT10=
EXTT11=
EXTT12=
EXTT13=
EXTT14=
EXTT15=
EXTT16=
EXTT17=
EXTT18=
EXTT19=
PLAYORDER=
